<?xml version="1.0" encoding="UTF-8" standalone="no"?>
<!-- Created with Inkscape (http://www.inkscape.org/) -->

<svg
   xmlns:dc="http://purl.org/dc/elements/1.1/"
   xmlns:cc="http://creativecommons.org/ns#"
   xmlns:rdf="http://www.w3.org/1999/02/22-rdf-syntax-ns#"
   xmlns:svg="http://www.w3.org/2000/svg"
   xmlns="http://www.w3.org/2000/svg"
   xmlns:sodipodi="http://sodipodi.sourceforge.net/DTD/sodipodi-0.dtd"
   xmlns:inkscape="http://www.inkscape.org/namespaces/inkscape"
   version="1.1"
   id="svg90"
   width="112"
   height="134"
   viewBox="0 0 112 134"
   sodipodi:docname="hare.svg"
   inkscape:version="0.92.5 (2060ec1f9f, 2020-04-08)">
  <metadata
     id="metadata96">
    <rdf:RDF>
      <cc:Work
         rdf:about="">
        <dc:format>image/svg+xml</dc:format>
        <dc:type
           rdf:resource="http://purl.org/dc/dcmitype/StillImage" />
        <dc:title></dc:title>
      </cc:Work>
    </rdf:RDF>
  </metadata>
  <defs
     id="defs94" />
  <sodipodi:namedview
     pagecolor="#ffffff"
     bordercolor="#666666"
     borderopacity="1"
     objecttolerance="10"
     gridtolerance="10"
     guidetolerance="10"
     inkscape:pageopacity="0"
     inkscape:pageshadow="2"
     inkscape:window-width="1366"
     inkscape:window-height="720"
     id="namedview92"
     showgrid="false"
     fit-margin-top="0"
     fit-margin-left="0"
     fit-margin-right="0"
     fit-margin-bottom="0"
     inkscape:zoom="2"
     inkscape:cx="64.459619"
     inkscape:cy="45.707188"
     inkscape:window-x="0"
     inkscape:window-y="0"
     inkscape:window-maximized="1"
     inkscape:current-layer="svg90" />
  <path
     style="fill:#000000"
     d="m 1.03518,133.06574 c -1.48834,-2.781 -1.27475,-7.70179 0.48175,-11.09847 2.88002,-5.56935 10.86168,-7.62884 16.54801,-4.26984 1.58044,0.93359 3.08939,1.48157 3.35323,1.21773 0.26383,-0.26383 -0.01,-2.40748 -0.60768,-4.76365 -1.81206,-7.13894 1.76987,-15.331786 8.14423,-18.628096 2.58856,-1.338593 3.48669,-1.159031 13.16171,2.631377 5.71096,2.237399 11.50857,4.253869 12.88357,4.481039 1.43884,0.23772 7.37537,-1.47226 13.98594,-4.028558 11.20169,-4.331679 11.55693,-4.400339 14.35464,-2.774435 6.53589,3.798385 9.47303,11.050393 7.55713,18.659133 -0.63494,2.52155 -0.92242,4.81665 -0.63885,5.10022 0.28357,0.28357 2.02883,-0.40698 3.87836,-1.53456 1.84953,-1.12759 4.64335,-2.05184 6.20849,-2.05389 8.43341,-0.0111 14.59923,10.34676 10.03676,16.86059 -1.57617,2.2503 -1.90215,2.29268 -12.75,1.65772 C 91.50961,134.16365 80.2,132.92324 72.5,131.76558 55.44539,129.20148 55.74288,129.20639 44,131.29569 c -12.0459,2.14321 -26.57772,3.66469 -35.21482,3.68698 -5.62585,0.0145 -6.88269,-0.29635 -7.75,-1.91693 z m 11.9625,-5.65955 c 5.509,-3.95782 5.9328,-4.83785 3.06806,-6.37101 C 9.718,117.63798 0.48542,125.08542 5.2,129.8 c 1.73914,1.73914 2.27309,1.57522 7.79768,-2.39381 z M 38.5,128.37871 c 21.25129,-3.15038 47.83223,-10.19615 48.8928,-12.95994 1.20701,-3.14542 0.55906,-8.98545 -1.34303,-12.10495 -3.64107,-5.971482 -4.5715,-5.961296 -19.7875,0.21664 -19.08705,7.74964 -48.04165,23.30768 -49.05937,26.36084 -0.43206,1.29618 4.90909,0.91684 21.2971,-1.51259 z m 56.5,1.60887 c 0,-0.55683 -2.51425,-2.62077 -5.58721,-4.58652 -4.28416,-2.74054 -6.20824,-3.42251 -8.25,-2.92412 C 73.58638,124.3263 68,126.23208 68,126.96738 c 0,0.45401 3.9375,1.36137 8.75,2.01637 4.8125,0.655 9.425,1.3244 10.25,1.48757 3.60052,0.71212 8,0.44609 8,-0.48374 z m 12.87371,-0.75161 c 1.49155,-2.78698 -1.1887,-8.01963 -4.56078,-8.90402 -4.7276,-1.2399 -9.3597,0.27765 -9.28068,3.04049 0.043,1.50348 9.00835,7.61385 11.18257,7.62151 0.94315,0.003 2.13965,-0.78776 2.65889,-1.75798 z M 44.75,109.0727 C 47.6375,107.74469 50,106.32444 50,105.9166 50,104.99588 34.47315,99 32.08888,99 c -1.8683,0 -5.13738,3.1378 -6.96392,6.68426 -1.73199,3.36288 -1.34515,8.09555 0.84035,10.28105 1.95374,1.95374 1.99934,1.94635 7.75,-1.25636 3.18158,-1.77192 8.14719,-4.30823 11.03469,-5.63625 z m 8.682453,-9.39347 c -1.761277,-0.491176 -3.371233,-3.599035 -2.414063,-4.190594 1.59397,-0.98513 8.36925,-0.98513 9.96322,0 1.87541,1.159063 -2.026798,5.970084 -6.270823,4.705614 -1.216963,-0.362582 -1.278334,-0.51502 -1.278334,-0.51502 z M 42,91.294086 c -5.35037,-0.757602 -6.95223,-1.383011 -9.90404,-3.866796 -4.29092,-3.610567 -5.62191,-9.072329 -3.502,-14.370509 0.89843,-2.245414 2.89793,-4.982912 4.44332,-6.083329 1.54539,-1.100416 3.10168,-3.329667 3.45842,-4.953892 0.35674,-1.624225 1.76465,-4.597699 3.12869,-6.607721 l 2.48007,-3.654585 -4.63707,-4.443089 C 28.76315,38.97403 25.08728,25.726642 27.07612,9.8652856 27.64975,5.2905548 28.34397,1.322696 28.61884,1.047822 c 1.09769,-1.09769 11.69558,5.4993686 15.02101,9.350399 3.99992,4.632123 9.75554,15.463281 10.81482,20.351779 0.95011,4.384651 1.98114,4.088675 3.48352,-1 C 61.36984,18.126746 70.41007,6.3735169 78.84397,2.570359 81.141,1.534543 83.21571,0.882375 83.45443,1.121097 c 0.23872,0.238721 0.92003,4.3449774 1.51402,9.125013 1.93934,15.606498 -1.74047,28.831104 -10.26316,36.884063 l -4.43149,4.187243 2.8631,5.442838 C 74.71161,59.753815 76,62.985164 76,63.941031 c 0,0.955866 1.10335,2.240661 2.4519,2.8551 5.34111,2.433572 7.58268,12.956134 3.8463,18.055613 -3.00924,4.107073 -7.97672,6.144942 -14.9831,6.146702 -3.4017,8.55e-4 -7.32236,-0.430907 -8.71259,-0.95947 C 57.09287,89.46501 54.95218,89.430509 53.28742,89.953316 49.3752,91.181907 44.93368,91.709493 42,91.29409 Z M 76.16671,85.383743 C 79.54919,83.672706 81.46548,78.354509 80.04539,74.61939 79.48734,73.151608 77.50449,71.050179 75.63906,69.949547 73.0144,68.400956 72.10983,67.088282 71.63919,64.145097 70.24353,55.417085 62.95348,49.493107 54.71466,50.392024 46.76333,51.259575 42.0543,55.863156 40.46782,64.31985 39.95604,67.047846 38.98638,68.472804 36.91173,69.545645 31.00658,72.599316 30.0687,80.197132 35.07672,84.411106 37.62891,86.55863 39.16328,87 44.07672,87 50.08001,87 51.56464,85.907736 48.08938,84.047833 45.11355,82.455222 42,76.63349 42,72.661903 c 0,-2.819748 0.63337,-4.070301 2.91638,-5.758201 1.60401,-1.185895 3.14928,-3.046777 3.43393,-4.135294 0.71806,-2.745851 3.08219,-1.684295 3.46588,1.556271 0.21989,1.857131 1.05674,2.85631 2.74776,3.280728 3.53871,0.888158 5.2488,-0.113356 5.61393,-3.287796 C 60.57068,60.90264 64,59.673886 64,62.948115 c 0,1.238217 0.97716,2.539985 2.38973,3.183596 3.12063,1.421855 4.42964,4.5818 3.56447,8.604655 C 69.21742,78.162221 64.55053,85 62.94911,85 62.4271,85 62,85.418702 62,85.930449 c 0,2.273344 9.30145,1.914393 14.16671,-0.546706 z M 62,80 C 68.26825,73.731746 66.95454,66.541701 60.44113,71.468197 57.84171,73.434301 54.79838,73.36519 51.12442,71.256622 47.42394,69.132837 45.40127,70.47835 46.38748,74.407717 47.22446,77.742492 53.51691,84 56.03333,84 57.115,84 59.8,82.2 62,80 Z M 74.93173,41.266657 C 76.58859,39.256602 78.62558,35.612274 79.45837,33.16815 82.67711,23.721686 82.65027,7 79.41638,7 76.68949,7 69.23593,15.02245 65.68858,21.775566 62.83303,27.211714 58,41.876548 58,45.105004 c 0,0.400581 1.9125,1.376666 4.25,2.169078 3.91065,1.325709 4.46636,1.289297 6.95963,-0.456015 1.4903,-1.043221 4.06524,-3.541355 5.7221,-5.55141 z M 50.13398,46.841712 C 52.26029,46.204654 54,45.389406 54,45.030049 54,44.670693 53.06483,40.804422 51.92185,36.438337 49.2178,26.109126 43.87726,16.063352 38.41191,11.025566 32.39292,5.4774594 31.03075,5.6987826 30.87592,12.25 c -0.39328,16.640579 1.77919,24.457742 8.7283,31.40685 4.78638,4.786381 4.98443,4.846284 10.52976,3.184862 z"
     id="path3803"
     inkscape:connector-curvature="0"
     sodipodi:nodetypes="ccssccscsccsccccsscccsscscsssssscsssscsscccsssscccccsccscssscsccscsscssccsssscccccsscscssscsscsscssssscssssssscscsscssssssss" />
</svg>
